<?xml version="1.0" encoding="UTF-8" standalone="no"?>
<!-- Created with Inkscape (http://www.inkscape.org/) -->

<svg
   width="720"
   height="900"
   viewBox="0 0 240 300"
   version="1.1"
   id="svg1"
   xml:space="preserve"
   inkscape:version="1.3 (0e150ed6c4, 2023-07-21)"
   sodipodi:docname="Contextual Input Overlay Project.svg"
   inkscape:export-filename="mouse_boundary.png"
   inkscape:export-xdpi="133.05659"
   inkscape:export-ydpi="133.05659"
   xmlns:inkscape="http://www.inkscape.org/namespaces/inkscape"
   xmlns:sodipodi="http://sodipodi.sourceforge.net/DTD/sodipodi-0.dtd"
   xmlns="http://www.w3.org/2000/svg"
   xmlns:svg="http://www.w3.org/2000/svg"><sodipodi:namedview
     id="namedview1"
     pagecolor="#505050"
     bordercolor="#ffffff"
     borderopacity="1"
     inkscape:showpageshadow="0"
     inkscape:pageopacity="0"
     inkscape:pagecheckerboard="true"
     inkscape:deskcolor="#505050"
     inkscape:document-units="px"
     inkscape:zoom="0.9726873"
     inkscape:cx="206.64401"
     inkscape:cy="223.60732"
     inkscape:window-width="1920"
     inkscape:window-height="1057"
     inkscape:window-x="-8"
     inkscape:window-y="-5"
     inkscape:window-maximized="1"
     inkscape:current-layer="layer1"
     showgrid="false"
     inkscape:export-bgcolor="#00000000"
     showborder="true"><inkscape:grid
       id="grid37"
       units="px"
       originx="0"
       originy="0"
       spacingx="0.26458333"
       spacingy="0.26458334"
       empcolor="#0099e5"
       empopacity="0.30196078"
       color="#0099e5"
       opacity="0.14901961"
       empspacing="10"
       dotted="false"
       gridanglex="30"
       gridanglez="30"
       visible="false" /></sodipodi:namedview><defs
     id="defs1"><rect
       x="112.9461"
       y="91.900242"
       width="584.3733"
       height="72.257442"
       id="rect56" /><rect
       x="67.959618"
       y="480.67788"
       width="228.1642"
       height="19.740741"
       id="rect34" /><rect
       x="412.71826"
       y="540.20453"
       width="132.9429"
       height="57.54245"
       id="rect112" /><rect
       x="270.11172"
       y="660.99011"
       width="233.2364"
       height="134.59492"
       id="rect3" /><inkscape:path-effect
       effect="fill_between_many"
       method="originald"
       linkedpaths="#path63,0,1"
       id="path-effect64"
       is_visible="true"
       lpeversion="0"
       join="true"
       close="true"
       autoreverse="true" /><inkscape:path-effect
       effect="fill_between_many"
       method="originald"
       linkedpaths="#path40,0,1"
       id="path-effect52"
       is_visible="true"
       lpeversion="0"
       join="true"
       close="true"
       autoreverse="true" /><rect
       x="412.71826"
       y="540.20453"
       width="174.50518"
       height="54.527914"
       id="rect114" /><rect
       x="412.71826"
       y="540.20453"
       width="148.81668"
       height="57.046394"
       id="rect119" /><rect
       x="412.71826"
       y="540.20453"
       width="148.81668"
       height="57.046394"
       id="rect124" /><rect
       x="67.959618"
       y="480.67788"
       width="225.25635"
       height="48.092262"
       id="rect2" /><rect
       x="67.959618"
       y="480.67788"
       width="228.1642"
       height="19.740741"
       id="rect6" /><rect
       x="67.959618"
       y="480.67788"
       width="228.1642"
       height="45.699752"
       id="rect20" /><rect
       x="67.959618"
       y="480.67788"
       width="228.1642"
       height="19.740741"
       id="rect22" /><rect
       x="67.959618"
       y="480.67788"
       width="228.1642"
       height="19.740741"
       id="rect27" /><rect
       x="67.959618"
       y="480.67788"
       width="228.1642"
       height="19.740741"
       id="rect35" /><rect
       x="67.959618"
       y="480.67788"
       width="228.1642"
       height="42.559299"
       id="rect36" /><rect
       x="67.959618"
       y="480.67788"
       width="152.51572"
       height="18.500602"
       id="rect48" /><rect
       x="67.959618"
       y="480.67788"
       width="228.1642"
       height="19.740741"
       id="rect53" /></defs><g
     inkscape:label="Icons"
     inkscape:groupmode="layer"
     id="layer1"
     inkscape:export-filename=".\COI - Annotated.png"
     inkscape:export-xdpi="96"
     inkscape:export-ydpi="96"
     style="display:inline"><path
       id="path8"
       style="display:inline;fill:#fff957;fill-opacity:0.595016;stroke:#ffffff;stroke-width:1.32292;stroke-linecap:round;stroke-linejoin:round;stroke-dasharray:none"
       d="m 104.32124,163.28364 15.48263,15.14803 c 1.32975,1.30101 3.44769,1.27788 4.74872,-0.0519 v 0 l 13.01935,-13.30691 2.12893,-2.17596 -5.46852,-5.35015 m 0,0 -9.07103,8.93449 c -0.66525,0.67996 -1.80158,1.45828 -3.25708,1.47418 -1.45548,0.0159 -2.9611,-0.92961 -3.7163,-1.66848 l -8.51636,-8.47191 -5.35034,5.4686"
       sodipodi:nodetypes="csscccccczccc"
       inkscape:label="tbl"
       inkscape:export-filename=".\tbl.png"
       inkscape:export-xdpi="96"
       inkscape:export-ydpi="96" /><g
       id="g47"
       transform="matrix(0.74757399,0,0,0.74757399,36.736191,17.086042)"
       style="display:inline;stroke-width:1.33766"
       inkscape:label="Yaw &amp; Pitch"><path
         style="display:inline;fill:none;fill-opacity:0.847059;stroke:#ffffff;stroke-width:1.76962;stroke-linecap:round;stroke-linejoin:round"
         d="m 165.08036,114.10914 a 17.950611,17.950603 60 0 1 -2.54299,-0.30386 17.950611,17.950603 60 0 1 -2.47427,-0.66301 17.950611,17.950603 60 0 1 -2.35438,-1.0082 17.950611,17.950603 60 0 1 -2.18695,-1.33326 17.950611,17.950603 60 0 1 -1.84898,-1.52652 l 10.70787,-10.707871 c 0.117,-0.117 0.24308,-0.219717 0.37569,-0.307467 0.13262,-0.0877 0.27171,-0.16061 0.41548,-0.21911 0.14377,-0.0585 0.29189,-0.10253 0.44235,-0.13178 0.15046,-0.02925 0.30361,-0.04393 0.4563,-0.04393 0.1527,0 0.30533,0.01468 0.45579,0.04393 0.15046,0.0292 0.29858,0.0733 0.44235,0.13178 0.14377,0.0585 0.28286,0.13136 0.41548,0.21911 0.13261,0.0877 0.25869,0.190467 0.37569,0.307467 l 10.58178,10.581781 a 17.950611,17.950603 60 0 1 -0.57154,0.52607 17.950611,17.950603 60 0 1 -0.67593,0.56482 17.950611,17.950603 60 0 1 -0.70332,0.53072 17.950611,17.950603 60 0 1 -0.72863,0.49557 17.950611,17.950603 60 0 1 -0.7519,0.45889 17.950611,17.950603 60 0 1 -2.30373,1.11931 17.950611,17.950603 60 0 1 -2.43965,0.7798 17.950611,17.950603 60 0 1 -2.52594,0.42478 17.950611,17.950603 60 0 1 -2.56057,0.061 z"
         id="path39"
         inkscape:label="pdu"
         inkscape:export-filename=".\pdu.png"
         inkscape:export-xdpi="96"
         inkscape:export-ydpi="96" /><path
         style="display:inline;fill:#fff955;fill-opacity:0.847059;stroke:#ffffff;stroke-width:1.76962;stroke-linecap:round;stroke-linejoin:round"
         d="m 165.08036,114.10914 a 17.950611,17.950603 60 0 1 -2.54299,-0.30386 17.950611,17.950603 60 0 1 -2.47427,-0.66301 17.950611,17.950603 60 0 1 -2.35438,-1.0082 17.950611,17.950603 60 0 1 -2.18695,-1.33326 17.950611,17.950603 60 0 1 -1.84898,-1.52652 l 10.70787,-10.707871 c 0.117,-0.117 0.24308,-0.219717 0.37569,-0.307467 0.13262,-0.0877 0.27171,-0.16061 0.41548,-0.21911 0.14377,-0.0585 0.29189,-0.10253 0.44235,-0.13178 0.15046,-0.02925 0.30361,-0.04393 0.4563,-0.04393 0.1527,0 0.30533,0.01468 0.45579,0.04393 0.15046,0.0292 0.29858,0.0733 0.44235,0.13178 0.14377,0.0585 0.28286,0.13136 0.41548,0.21911 0.13261,0.0877 0.25869,0.190467 0.37569,0.307467 l 10.58178,10.581781 a 17.950611,17.950603 60 0 1 -0.57154,0.52607 17.950611,17.950603 60 0 1 -0.67593,0.56482 17.950611,17.950603 60 0 1 -0.70332,0.53072 17.950611,17.950603 60 0 1 -0.72863,0.49557 17.950611,17.950603 60 0 1 -0.7519,0.45889 17.950611,17.950603 60 0 1 -2.30373,1.11931 17.950611,17.950603 60 0 1 -2.43965,0.7798 17.950611,17.950603 60 0 1 -2.52594,0.42478 17.950611,17.950603 60 0 1 -2.56057,0.061 z"
         id="path45"
         inkscape:label="pdl"
         inkscape:export-filename=".\pdl.png"
         inkscape:export-xdpi="96"
         inkscape:export-ydpi="96" /><path
         style="display:inline;fill:none;fill-opacity:0.847059;stroke:#ffffff;stroke-width:1.76962;stroke-linecap:round;stroke-linejoin:round"
         d="m 165.08036,79.363632 a 17.950603,17.950611 30 0 0 -2.54299,0.303857 17.950603,17.950611 30 0 0 -2.47427,0.663009 17.950603,17.950611 30 0 0 -2.35438,1.008207 17.950603,17.950611 30 0 0 -2.18695,1.333252 17.950603,17.950611 30 0 0 -1.84898,1.526522 l 10.70787,10.707873 c 0.117,0.117 0.24308,0.219725 0.37569,0.307475 0.13262,0.08775 0.27171,0.160608 0.41548,0.219108 0.14377,0.0585 0.29189,0.102525 0.44235,0.131775 0.15046,0.02925 0.30361,0.04393 0.4563,0.04393 0.1527,0 0.30533,-0.01468 0.45579,-0.04393 0.15046,-0.02925 0.29858,-0.07328 0.44235,-0.131775 0.14377,-0.0585 0.28286,-0.131358 0.41548,-0.219108 0.13261,-0.08775 0.25869,-0.190475 0.37569,-0.307475 l 10.58178,-10.581783 a 17.950603,17.950611 30 0 0 -0.57154,-0.526066 17.950603,17.950611 30 0 0 -0.67593,-0.564823 17.950603,17.950611 30 0 0 -0.70332,-0.530717 17.950603,17.950611 30 0 0 -0.72863,-0.495577 17.950603,17.950611 30 0 0 -0.7519,-0.458887 17.950603,17.950611 30 0 0 -2.30373,-1.119312 17.950603,17.950611 30 0 0 -2.43965,-0.779797 17.950603,17.950611 30 0 0 -2.52594,-0.42478 17.950603,17.950611 30 0 0 -2.56057,-0.06098 z"
         id="path42"
         inkscape:label="puu"
         inkscape:export-filename=".\puu.png"
         inkscape:export-xdpi="96"
         inkscape:export-ydpi="96" /><path
         style="display:inline;fill:#fff955;fill-opacity:0.847059;stroke:#ffffff;stroke-width:1.76962;stroke-linecap:round;stroke-linejoin:round"
         d="m 165.08036,79.363632 a 17.950603,17.950611 30 0 0 -2.54299,0.303857 17.950603,17.950611 30 0 0 -2.47427,0.663009 17.950603,17.950611 30 0 0 -2.35438,1.008207 17.950603,17.950611 30 0 0 -2.18695,1.333252 17.950603,17.950611 30 0 0 -1.84898,1.526522 l 10.70787,10.707873 c 0.117,0.117 0.24308,0.219725 0.37569,0.307475 0.13262,0.08775 0.27171,0.160608 0.41548,0.219108 0.14377,0.0585 0.29189,0.102525 0.44235,0.131775 0.15046,0.02925 0.30361,0.04393 0.4563,0.04393 0.1527,0 0.30533,-0.01468 0.45579,-0.04393 0.15046,-0.02925 0.29858,-0.07328 0.44235,-0.131775 0.14377,-0.0585 0.28286,-0.131358 0.41548,-0.219108 0.13261,-0.08775 0.25869,-0.190475 0.37569,-0.307475 l 10.58178,-10.581783 a 17.950603,17.950611 30 0 0 -0.57154,-0.526066 17.950603,17.950611 30 0 0 -0.67593,-0.564823 17.950603,17.950611 30 0 0 -0.70332,-0.530717 17.950603,17.950611 30 0 0 -0.72863,-0.495577 17.950603,17.950611 30 0 0 -0.7519,-0.458887 17.950603,17.950611 30 0 0 -2.30373,-1.119312 17.950603,17.950611 30 0 0 -2.43965,-0.779797 17.950603,17.950611 30 0 0 -2.52594,-0.42478 17.950603,17.950611 30 0 0 -2.56057,-0.06098 z"
         id="path43"
         inkscape:label="pul"
         inkscape:export-filename=".\pul.png"
         inkscape:export-xdpi="96"
         inkscape:export-ydpi="96" /><path
         style="display:inline;fill:none;fill-opacity:0.847059;stroke:#ffffff;stroke-width:1.76962;stroke-linecap:round;stroke-linejoin:round"
         d="m 183.37994,95.809573 a 17.950611,17.950603 30 0 0 -0.30386,-2.54299 17.950611,17.950603 30 0 0 -0.663,-2.47427 17.950611,17.950603 30 0 0 -1.00821,-2.35438 17.950611,17.950603 30 0 0 -1.33325,-2.18695 17.950611,17.950603 30 0 0 -1.52653,-1.84898 l -10.70787,10.70787 c -0.117,0.117 -0.21972,0.24308 -0.30747,0.37569 -0.0877,0.13262 -0.16061,0.27171 -0.21911,0.41548 -0.0585,0.14377 -0.10253,0.29189 -0.13178,0.44235 -0.0292,0.15046 -0.0439,0.30361 -0.0439,0.4563 0,0.1527 0.0147,0.30533 0.0439,0.45579 0.0293,0.15046 0.0733,0.29858 0.13178,0.44235 0.0585,0.14377 0.13136,0.28286 0.21911,0.41548 0.0877,0.13261 0.19047,0.25869 0.30747,0.37569 L 178.419,109.07078 a 17.950611,17.950603 30 0 0 0.52607,-0.57154 17.950611,17.950603 30 0 0 0.56482,-0.67593 17.950611,17.950603 30 0 0 0.53072,-0.70332 17.950611,17.950603 30 0 0 0.49558,-0.72863 17.950611,17.950603 30 0 0 0.45888,-0.7519 17.950611,17.950603 30 0 0 1.11932,-2.30373 17.950611,17.950603 30 0 0 0.77979,-2.43965 17.950611,17.950603 30 0 0 0.42478,-2.525937 17.950611,17.950603 30 0 0 0.061,-2.56057 z"
         id="path41"
         inkscape:label="yru"
         inkscape:export-filename=".\yru.png"
         inkscape:export-xdpi="96"
         inkscape:export-ydpi="96" /><path
         style="display:inline;fill:#fff955;fill-opacity:0.847059;stroke:#ffffff;stroke-width:1.76962;stroke-linecap:round;stroke-linejoin:round"
         d="m 183.37994,95.809573 a 17.950611,17.950603 30 0 0 -0.30386,-2.54299 17.950611,17.950603 30 0 0 -0.663,-2.47427 17.950611,17.950603 30 0 0 -1.00821,-2.35438 17.950611,17.950603 30 0 0 -1.33325,-2.18695 17.950611,17.950603 30 0 0 -1.52653,-1.84898 l -10.70787,10.70787 c -0.117,0.117 -0.21972,0.24308 -0.30747,0.37569 -0.0877,0.13262 -0.16061,0.27171 -0.21911,0.41548 -0.0585,0.14377 -0.10253,0.29189 -0.13178,0.44235 -0.0292,0.15046 -0.0439,0.30361 -0.0439,0.4563 0,0.1527 0.0147,0.30533 0.0439,0.45579 0.0293,0.15046 0.0733,0.29858 0.13178,0.44235 0.0585,0.14377 0.13136,0.28286 0.21911,0.41548 0.0877,0.13261 0.19047,0.25869 0.30747,0.37569 L 178.419,109.07078 a 17.950611,17.950603 30 0 0 0.52607,-0.57154 17.950611,17.950603 30 0 0 0.56482,-0.67593 17.950611,17.950603 30 0 0 0.53072,-0.70332 17.950611,17.950603 30 0 0 0.49558,-0.72863 17.950611,17.950603 30 0 0 0.45888,-0.7519 17.950611,17.950603 30 0 0 1.11932,-2.30373 17.950611,17.950603 30 0 0 0.77979,-2.43965 17.950611,17.950603 30 0 0 0.42478,-2.525937 17.950611,17.950603 30 0 0 0.061,-2.56057 z"
         id="path46"
         inkscape:label="yrl"
         inkscape:export-filename=".\yrl.png"
         inkscape:export-xdpi="96"
         inkscape:export-ydpi="96" /><path
         style="display:inline;fill:none;fill-opacity:0.847059;stroke:#ffffff;stroke-width:1.76962;stroke-linecap:round;stroke-linejoin:round"
         d="m 165.08036,114.63831 a 17.950611,17.950603 60 0 1 -2.54299,-0.30386 17.950611,17.950603 60 0 1 -2.47427,-0.66301 17.950611,17.950603 60 0 1 -2.35438,-1.0082 17.950611,17.950603 60 0 1 -2.18695,-1.33326 17.950611,17.950603 60 0 1 -1.84898,-1.52652 l 10.70787,-10.707874 c 0.117,-0.117 0.24308,-0.219717 0.37569,-0.307467 0.13262,-0.0877 0.27171,-0.16061 0.41548,-0.21911 0.14377,-0.0585 0.29189,-0.10253 0.44235,-0.13178 0.15046,-0.02925 0.30361,-0.04393 0.4563,-0.04393 0.1527,0 0.30533,0.01468 0.45579,0.04393 0.15046,0.0292 0.29858,0.0733 0.44235,0.13178 0.14377,0.0585 0.28286,0.13136 0.41548,0.21911 0.13261,0.0877 0.25869,0.190467 0.37569,0.307467 l 10.58178,10.581784 a 17.950611,17.950603 60 0 1 -0.57154,0.52607 17.950611,17.950603 60 0 1 -0.67593,0.56482 17.950611,17.950603 60 0 1 -0.70332,0.53072 17.950611,17.950603 60 0 1 -0.72863,0.49557 17.950611,17.950603 60 0 1 -0.7519,0.45889 17.950611,17.950603 60 0 1 -2.30373,1.11931 17.950611,17.950603 60 0 1 -2.43965,0.7798 17.950611,17.950603 60 0 1 -2.52594,0.42478 17.950611,17.950603 60 0 1 -2.56057,0.061 z"
         transform="rotate(90,166.27176,97.000976)"
         id="path40"
         inkscape:label="ylu"
         inkscape:export-filename=".\ylu.png"
         inkscape:export-xdpi="96"
         inkscape:export-ydpi="96" /><path
         style="display:inline;fill:#fff955;fill-opacity:0.847059;stroke:#ffffff;stroke-width:1.76962;stroke-linecap:round;stroke-linejoin:round"
         d="m 148.63443,95.809573 a 17.950603,17.950611 60 0 1 0.30386,-2.54299 17.950603,17.950611 60 0 1 0.66301,-2.47427 17.950603,17.950611 60 0 1 1.0082,-2.35438 17.950603,17.950611 60 0 1 1.33326,-2.18695 17.950603,17.950611 60 0 1 1.52652,-1.84898 l 10.70787,10.70787 c 0.117,0.117 0.21972,0.24308 0.30747,0.37569 0.0877,0.13262 0.16061,0.27171 0.21911,0.41548 0.0585,0.14377 0.10253,0.29189 0.13178,0.44235 0.0292,0.15046 0.0439,0.30361 0.0439,0.4563 0,0.1527 -0.0147,0.30533 -0.0439,0.45579 -0.0292,0.15046 -0.0733,0.29858 -0.13178,0.44235 -0.0585,0.14377 -0.13136,0.28286 -0.21911,0.41548 -0.0877,0.13261 -0.19047,0.25869 -0.30747,0.37569 l -10.58178,10.581777 a 17.950603,17.950611 60 0 1 -0.52607,-0.57154 17.950603,17.950611 60 0 1 -0.56482,-0.67593 17.950603,17.950611 60 0 1 -0.53072,-0.70332 17.950603,17.950611 60 0 1 -0.49557,-0.72863 17.950603,17.950611 60 0 1 -0.45889,-0.7519 17.950603,17.950611 60 0 1 -1.11931,-2.30373 17.950603,17.950611 60 0 1 -0.7798,-2.43965 17.950603,17.950611 60 0 1 -0.42478,-2.525937 17.950603,17.950611 60 0 1 -0.061,-2.56057 z"
         id="path47"
         inkscape:label="yll"
         inkscape:export-filename=".\yll.png"
         inkscape:export-xdpi="96"
         inkscape:export-ydpi="96" /></g><path
       style="display:inline;fill:none;fill-opacity:1;stroke:#ffffff;stroke-width:1.32292;stroke-linecap:round;stroke-linejoin:round;stroke-dasharray:none;paint-order:normal"
       d="m 130.6634,112.96929 a 17.950603,17.950611 30 0 0 -24.52193,6.57064 17.950603,17.950611 30 0 0 6.57062,24.52192 17.950603,17.950611 30 0 0 24.52018,-6.57165 17.950603,17.950611 30 0 0 -6.56887,-24.52091 z"
       id="path21"
       inkscape:label="mouse_boundary"
       inkscape:export-filename=".\mouse.png"
       inkscape:export-xdpi="136.46826"
       inkscape:export-ydpi="136.46826" /><g
       id="g132"
       inkscape:label="Boost"
       style="display:inline"
       inkscape:export-filename=".\boost_lit.png"
       inkscape:export-xdpi="96"
       inkscape:export-ydpi="96"><rect
         style="display:inline;fill:none;fill-opacity:1;stroke:#ffffff;stroke-width:1.36071;stroke-linecap:round;stroke-linejoin:round;stroke-dasharray:none;stroke-opacity:1"
         id="rect120"
         width="55.789284"
         height="17.008932"
         x="125.2244"
         y="183.46729"
         rx="3.4017856"
         ry="3.1498022"
         inkscape:label="unlit"
         inkscape:export-filename=".\boost_l.png"
         inkscape:export-xdpi="96"
         inkscape:export-ydpi="96" /><rect
         style="display:inline;fill:#fff856;fill-opacity:0.596078;stroke:#ffffff;stroke-width:1.36071;stroke-linecap:round;stroke-linejoin:round;stroke-dasharray:none;stroke-opacity:1"
         id="rect132"
         width="55.789284"
         height="17.008932"
         x="125.2244"
         y="183.46729"
         rx="3.4017856"
         ry="3.1498022"
         inkscape:label="lit" /><text
         xml:space="preserve"
         transform="matrix(0.34017856,0,0,0.34017856,-10.339833,1.7848244)"
         id="text112"
         style="font-size:33.9691px;white-space:pre;shape-inside:url(#rect112);display:inline;fill:#ffffff;fill-opacity:1;stroke:#000000;stroke-width:1;stroke-linecap:round;stroke-linejoin:round;stroke-dasharray:none;stroke-opacity:0.6"
         x="16.177734"
         y="0"><tspan
           x="435.02894"
           y="571.19612"
           id="tspan4"><tspan
             style="font-weight:bold;font-family:'Century Gothic';-inkscape-font-specification:'Century Gothic';text-align:center;text-anchor:middle;stroke:none"
             id="tspan2">Boost</tspan></tspan></text></g><g
       id="g133"
       inkscape:label="Cargo Scoop"
       style="display:inline"
       inkscape:export-filename=".\cscoop_lit.png"
       inkscape:export-xdpi="96"
       inkscape:export-ydpi="96"><rect
         style="display:inline;fill:none;fill-opacity:1;stroke:#ffffff;stroke-width:1.36071;stroke-linecap:round;stroke-linejoin:round;stroke-dasharray:none;stroke-opacity:1"
         id="rect121"
         width="55.789284"
         height="17.008932"
         x="125.2244"
         y="207.92278"
         rx="3.4017856"
         ry="3.1498022"
         inkscape:label="unlit"
         inkscape:export-filename=".\cscoop_l.png"
         inkscape:export-xdpi="96"
         inkscape:export-ydpi="96" /><rect
         style="display:inline;fill:#fff856;fill-opacity:0.596078;stroke:#ffffff;stroke-width:1.36071;stroke-linecap:round;stroke-linejoin:round;stroke-dasharray:none;stroke-opacity:1"
         id="rect133"
         width="55.789284"
         height="17.008932"
         x="125.2244"
         y="207.92278"
         rx="3.4017856"
         ry="3.1498022"
         inkscape:label="lit" /><text
         xml:space="preserve"
         transform="matrix(0.34017856,0,0,0.34017856,-16.980017,25.25008)"
         id="text114"
         style="font-size:33.9691px;white-space:pre;shape-inside:url(#rect114);display:inline;fill:#ffffff;fill-opacity:1;stroke:#000000;stroke-width:1;stroke-linecap:round;stroke-linejoin:round;stroke-dasharray:none;stroke-opacity:0.6"
         x="16.177734"
         y="0"><tspan
           x="424.56029"
           y="571.19612"
           id="tspan8"><tspan
             style="font-weight:bold;font-family:'Century Gothic';-inkscape-font-specification:'Century Gothic';text-align:center;text-anchor:middle;stroke:none"
             id="tspan6">C. Scoop</tspan></tspan></text></g><g
       id="g134"
       inkscape:label="Flight Assist"
       style="display:inline"
       inkscape:export-filename=".\fassist_lit.png"
       inkscape:export-xdpi="96"
       inkscape:export-ydpi="96"><rect
         style="display:inline;fill:none;fill-opacity:1;stroke:#ffffff;stroke-width:1.36071;stroke-linecap:round;stroke-linejoin:round;stroke-dasharray:none;stroke-opacity:1"
         id="rect123"
         width="55.789284"
         height="17.008932"
         x="62.009502"
         y="183.46729"
         rx="3.4017856"
         ry="3.1498022"
         inkscape:label="unlit"
         inkscape:export-filename=".\fassist_unlit.png"
         inkscape:export-xdpi="96"
         inkscape:export-ydpi="96" /><rect
         style="display:inline;fill:#fff856;fill-opacity:0.596078;stroke:#ffffff;stroke-width:1.36071;stroke-linecap:round;stroke-linejoin:round;stroke-dasharray:none;stroke-opacity:1"
         id="rect134"
         width="55.789284"
         height="17.008932"
         x="62.009502"
         y="183.46729"
         rx="3.4017856"
         ry="3.1498022"
         inkscape:label="lit" /><text
         xml:space="preserve"
         transform="matrix(0.34017856,0,0,0.34017856,-76.265854,1.9174199)"
         id="text123"
         style="font-size:33.9691px;white-space:pre;shape-inside:url(#rect124);display:inline;fill:#ffffff;fill-opacity:1;stroke:#000000;stroke-width:1;stroke-linecap:round;stroke-linejoin:round;stroke-dasharray:none;stroke-opacity:0.6"
         x="16.177734"
         y="0"><tspan
           x="425.32575"
           y="571.19612"
           id="tspan10"><tspan
             style="font-weight:bold;font-family:'Century Gothic';-inkscape-font-specification:'Century Gothic';text-align:center;text-anchor:middle;stroke:none"
             id="tspan9">F. Assist</tspan></tspan></text></g><g
       id="g135"
       style="display:inline"
       inkscape:label="Landing Gear"
       inkscape:export-filename=".\lgear_lit.png"
       inkscape:export-xdpi="96"
       inkscape:export-ydpi="96"><rect
         style="display:inline;fill:none;fill-opacity:1;stroke:#ffffff;stroke-width:1.36071;stroke-linecap:round;stroke-linejoin:round;stroke-dasharray:none;stroke-opacity:1"
         id="rect122"
         width="55.789284"
         height="17.008932"
         x="62.009502"
         y="207.92278"
         rx="3.4017856"
         ry="3.1498022"
         inkscape:label="unlit"
         inkscape:export-filename=".\lgear_l.png"
         inkscape:export-xdpi="96"
         inkscape:export-ydpi="96" /><rect
         style="display:inline;fill:#fff856;fill-opacity:0.596078;stroke:#ffffff;stroke-width:1.36071;stroke-linecap:round;stroke-linejoin:round;stroke-dasharray:none;stroke-opacity:1"
         id="rect135"
         width="55.789284"
         height="17.008932"
         x="62.009502"
         y="207.92278"
         rx="3.4017856"
         ry="3.1498022"
         inkscape:label="lit" /><text
         xml:space="preserve"
         transform="matrix(0.34017856,0,0,0.34017856,-76.288423,26.268526)"
         id="text119"
         style="font-size:33.9691px;white-space:pre;shape-inside:url(#rect119);display:inline;fill:#ffffff;fill-opacity:1;stroke:#000000;stroke-width:1;stroke-linecap:round;stroke-linejoin:round;stroke-dasharray:none;stroke-opacity:0.6"
         x="16.177734"
         y="0"><tspan
           x="428.36937"
           y="571.19612"
           id="tspan12"><tspan
             style="font-weight:bold;font-family:'Century Gothic';-inkscape-font-specification:'Century Gothic';text-align:center;text-anchor:middle;stroke:none"
             id="tspan11">L. Gear</tspan></tspan></text></g><g
       id="g71"
       inkscape:label="Roll"><path
         id="path128"
         style="display:inline;fill:none;fill-opacity:0.8;stroke:#ffffff;stroke-width:0.666667;stroke-linecap:round;stroke-linejoin:round;stroke-dasharray:none;stroke-opacity:1"
         d="m 124.71413,128.5046 c 1.3e-4,-1.67772 -1.35997,-3.03782 -3.03769,-3.03769 v 6.07538 c 1.67772,1.3e-4 3.03782,-1.35997 3.03769,-3.03769 z m -3.02721,-3.02721 c -1.67772,-1.3e-4 -3.03782,1.35997 -3.03769,3.03769 h 6.07538 c 1.3e-4,-1.67772 -1.35997,-3.03782 -3.03769,-3.03769 z"
         inkscape:label="pivot" /><path
         style="display:inline;fill:#fff955;fill-opacity:0.846645;stroke:#ffffff;stroke-width:1.33333;stroke-linecap:round;stroke-linejoin:round;stroke-dasharray:none;stroke-opacity:1"
         d="m 89.791497,147.40841 4.422321,-4.42232 -10.518434,-10.59151 c -2.237118,-2.25266 -2.209509,-5.5649 -0.08769,-7.67502 l 10.606125,-10.54766 8.572221,-8.68186 H 85.484117 l 4.28346,4.28346 -10.589147,10.52713 c -4.148563,4.12427 -4.912213,11.6702 0.02763,16.61004 z"
         id="path118"
         inkscape:label="cw_l"
         inkscape:transform-center-x="31.685395"
         inkscape:transform-center-y="-2.0875536" /><path
         style="display:inline;fill:#fff955;fill-opacity:0.846645;stroke:#ffffff;stroke-width:1.33333;stroke-linecap:round;stroke-linejoin:round;stroke-dasharray:none;stroke-opacity:1"
         d="m 153.4772,109.66515 -4.42232,4.42232 10.51843,10.59151 c 2.23712,2.25266 2.20951,5.5649 0.0877,7.67502 l -10.60613,10.54766 -8.57222,8.68186 h 17.30193 l -4.28346,-4.28346 10.58914,-10.52713 c 4.14857,-4.12427 4.91222,-11.6702 -0.0276,-16.61004 z"
         id="path132"
         inkscape:label="cw_r"
         inkscape:transform-center-x="-31.685407"
         inkscape:transform-center-y="2.0875564"
         inkscape:export-filename=".\roll_unlit.png"
         inkscape:export-xdpi="96"
         inkscape:export-ydpi="96" /><path
         style="display:inline;fill:#fff955;fill-opacity:0.846645;stroke:#ffffff;stroke-width:1.33333;stroke-linecap:round;stroke-linejoin:round;stroke-dasharray:none;stroke-opacity:1"
         d="m 89.791497,109.66515 4.422321,4.42232 -10.518434,10.59151 c -2.237118,2.25266 -2.209509,5.5649 -0.08769,7.67502 l 10.606125,10.54766 8.572221,8.68186 H 85.484117 l 4.28346,-4.28346 -10.589147,-10.52713 c -4.148563,-4.12427 -4.912213,-11.6702 0.02763,-16.61004 z"
         id="path133"
         inkscape:label="ccw_l"
         inkscape:transform-center-x="31.685395"
         inkscape:transform-center-y="2.0875564" /><path
         style="display:inline;fill:#fff955;fill-opacity:0.846645;stroke:#ffffff;stroke-width:1.33333;stroke-linecap:round;stroke-linejoin:round;stroke-dasharray:none;stroke-opacity:1"
         d="m 153.4772,147.40841 -4.42232,-4.42232 10.51843,-10.59151 c 2.23712,-2.25266 2.20951,-5.5649 0.0877,-7.67502 l -10.60613,-10.54766 -8.57222,-8.68186 h 17.30193 l -4.28346,4.28346 10.58914,10.52713 c 4.14857,4.12427 4.91222,11.6702 -0.0276,16.61004 z"
         id="path134"
         inkscape:label="ccw_r"
         inkscape:transform-center-x="-31.685407"
         inkscape:transform-center-y="-2.0875536"
         inkscape:export-filename=".\ccw.png"
         inkscape:export-xdpi="96"
         inkscape:export-ydpi="96" /></g><g
       id="g31"
       inkscape:label="Throttle"
       style="display:inline"
       transform="translate(0.97023333,8.9850606)"
       inkscape:export-filename=".\g31.png"
       inkscape:export-xdpi="96"
       inkscape:export-ydpi="96"><g
         id="g110"
         inkscape:label="Throttle Cancel"
         transform="translate(0.66666667,-9.1058765)"
         inkscape:export-filename=".\throttle_cancel_lit.png"
         inkscape:export-xdpi="96"
         inkscape:export-ydpi="96"><rect
           style="fill:#fff855;fill-opacity:0.8;stroke:#ffffff;stroke-width:1.33333;stroke-linecap:round;stroke-linejoin:round;stroke-dasharray:none;stroke-opacity:1"
           id="rect108"
           width="8.6666698"
           height="8.6666698"
           x="83.668045"
           y="93.690598"
           rx="1.1555561"
           ry="1.1555561"
           inkscape:label="lit"
           inkscape:export-filename=".\throttle_cancel_lit.png"
           inkscape:export-xdpi="96"
           inkscape:export-ydpi="96" /><path
           id="path110"
           style="fill:none;fill-opacity:1;stroke:#c00000;stroke-width:1.33333;stroke-linecap:round;stroke-linejoin:round;stroke-dasharray:none;stroke-opacity:1"
           d="m 83.998749,101.93943 7.91622,-7.916224 m -7.91622,-0.02067 8.060903,8.060904"
           inkscape:label="cross" /><rect
           style="display:inline;fill:none;fill-opacity:1;stroke:#ffffff;stroke-width:1.33333;stroke-linecap:round;stroke-linejoin:round;stroke-dasharray:none;stroke-opacity:1"
           id="rect110"
           width="8.6666698"
           height="8.6666698"
           x="83.668045"
           y="93.690598"
           rx="1.1555561"
           ry="1.1555561"
           inkscape:label="ul"
           inkscape:export-filename=".\throttle_cancel_unlit.png"
           inkscape:export-xdpi="96"
           inkscape:export-ydpi="96" /></g><g
         id="g32"
         inkscape:label="percent throttle"
         inkscape:export-filename=".\throttle_50per_lit.png"
         inkscape:export-xdpi="96"
         inkscape:export-ydpi="96"
         transform="translate(0.29934679,0.1950879)"><rect
           style="display:inline;fill:none;fill-opacity:0.596078;stroke:#ffffff;stroke-width:1.33333;stroke-linecap:round;stroke-linejoin:round"
           id="rect4"
           width="18.66667"
           height="8.6666698"
           x="62.289925"
           y="84.389633"
           rx="1.1668278"
           ry="1.0353284" /><path
           id="path18"
           style="display:inline;fill:#fff856;fill-opacity:0.596078;stroke:#ffffff;stroke-width:0.666667;stroke-linecap:round;stroke-linejoin:round;stroke-dasharray:none"
           d="m 67.059228,84.494806 v 8.432943 m 4.666667,-8.432943 v 8.432943 m 4.666668,-8.432943 v 8.432943"
           inkscape:label="dividers"
           inkscape:export-filename=".\throttle_percent_unlit.png"
           inkscape:export-xdpi="96"
           inkscape:export-ydpi="96" /><path
           style="display:inline;fill:#fff856;fill-opacity:0.799117;stroke:#000000;stroke-width:0.333333;stroke-linecap:round;stroke-linejoin:round;stroke-dasharray:none;stroke-opacity:1"
           d="m 62.866285,92.28701 v -7.151466 h 3.641053 v 7.081355 z"
           id="path53"
           inkscape:label="25"
           inkscape:export-filename=".\throttle_25per_lit.png"
           inkscape:export-xdpi="96"
           inkscape:export-ydpi="96" /><path
           style="display:inline;fill:#fff856;fill-opacity:0.799117;stroke:#000000;stroke-width:0.333333;stroke-linecap:round;stroke-linejoin:round;stroke-dasharray:none;stroke-opacity:1"
           d="m 67.532954,92.28701 v -7.151466 h 3.641053 v 7.081355 z"
           id="path54"
           inkscape:label="50"
           inkscape:export-filename=".\throttle_50per_lit.png"
           inkscape:export-xdpi="96"
           inkscape:export-ydpi="96" /><path
           style="display:inline;fill:#fff856;fill-opacity:0.799117;stroke:#000000;stroke-width:0.333333;stroke-linecap:round;stroke-linejoin:round;stroke-dasharray:none;stroke-opacity:1"
           d="m 72.199623,92.28701 v -7.151466 h 3.641053 v 7.081355 z"
           id="path24"
           inkscape:label="75" /><path
           style="display:none;fill:#fff856;fill-opacity:0.799117;stroke:#000000;stroke-width:0.333333;stroke-linecap:round;stroke-linejoin:round;stroke-dasharray:none;stroke-opacity:1"
           d="m 76.866292,92.28701 v -7.151466 h 3.465671 v 7.081355 z"
           id="path55"
           inkscape:label="100" /></g><path
         id="rect93"
         style="fill:none;stroke:#ffffff;stroke-width:1.33333;stroke-linecap:round;stroke-linejoin:round"
         d="M 79.138089,96.186317 H 64.2773 c -0.822155,0 -1.484045,0.66189 -1.484045,1.48407 v 14.861083 c 0,0.82218 -0.136748,3.10489 1.484045,1.48407 L 80.622146,97.670387 c 1.777631,-1.77766 -0.66189,-1.48407 -1.484057,-1.48407 z"
         sodipodi:nodetypes="sssssss"
         inkscape:label="du" /><path
         id="path10"
         style="fill:#fff955;fill-opacity:0.847059;stroke:#ffffff;stroke-width:1.33333;stroke-linecap:round;stroke-linejoin:round"
         d="M 79.138089,96.186317 H 64.2773 c -0.822155,0 -1.484045,0.66189 -1.484045,1.48407 v 14.861083 c 0,0.82218 -0.136748,3.10489 1.484045,1.48407 L 80.622146,97.670387 c 1.777631,-1.77766 -0.66189,-1.48407 -1.484057,-1.48407 z"
         sodipodi:nodetypes="sssssss"
         inkscape:label="dl" /><path
         id="path93"
         style="display:inline;fill:none;stroke:#ffffff;stroke-width:1.33333;stroke-linecap:round;stroke-linejoin:round"
         d="m 64.898239,81.649795 h 14.860789 c 0.822155,0 1.484045,-0.66189 1.484045,-1.48407 V 65.304654 c 0,-0.82218 0.136748,-3.10489 -1.484045,-1.48407 L 63.414182,80.165725 c -1.777631,1.77766 0.66189,1.48407 1.484057,1.48407 z"
         sodipodi:nodetypes="sssssss"
         inkscape:label="uu" /><path
         id="path9"
         style="fill:#fff955;fill-opacity:0.847059;stroke:#ffffff;stroke-width:1.33333;stroke-linecap:round;stroke-linejoin:round"
         d="m 64.898239,81.649795 h 14.860789 c 0.822155,0 1.484045,-0.66189 1.484045,-1.48407 V 65.304654 c 0,-0.82218 0.136748,-3.10489 -1.484045,-1.48407 L 63.414182,80.165725 c -1.777631,1.77766 0.66189,1.48407 1.484057,1.48407 z"
         sodipodi:nodetypes="sssssss"
         inkscape:label="ul" /></g><g
       id="g22"
       inkscape:label="Basic Thrust"><path
         d="m 124.04837,179.0663 14.14258,-14.14259 c 1.30725,-1.30741 1.30328,-3.41023 0,-4.71354 l -3.16667,-3.16666 -9.48774,9.50841 c -2.13914,2.13913 -5.66488,1.90097 -7.64854,-0.0827 l -9.52907,-9.42573 -3.16667,3.16666 c -1.30452,1.30468 -1.30631,3.40737 0,4.71354 l 14.14257,14.14258 c 1.30513,1.30529 3.40749,1.30608 4.71354,1e-5 z"
         style="fill:none;stroke:#ffffff;stroke-width:1.33333;stroke-linecap:round;stroke-linejoin:round;stroke-opacity:1"
         id="path6"
         inkscape:label="tbu"
         sodipodi:nodetypes="ccccccccccc"
         inkscape:transform-center-x="0.0023031277"
         inkscape:transform-center-y="-40.005203" /><path
         d="m 124.04837,179.0663 14.14258,-14.14259 c 1.30725,-1.30741 1.30328,-3.41023 0,-4.71354 l -3.16667,-3.16666 -9.48774,9.50841 c -2.13914,2.13913 -5.66488,1.90097 -7.64854,-0.0827 l -9.52907,-9.42573 -3.16667,3.16666 c -1.30452,1.30468 -1.30631,3.40737 0,4.71354 l 14.14257,14.14258 c 1.30513,1.30529 3.40749,1.30608 4.71354,1e-5 z"
         style="display:inline;fill:#fff955;fill-opacity:0.847059;stroke:#ffffff;stroke-width:1.33333;stroke-linecap:round;stroke-linejoin:round;stroke-opacity:1"
         id="path22"
         inkscape:label="tbl"
         sodipodi:nodetypes="ccccccccccc"
         inkscape:transform-center-x="0.0023031277"
         inkscape:transform-center-y="-40.005203" /><path
         d="m 119.33012,78.012359 -14.14258,14.142589 c -1.30725,1.307409 -1.30328,3.410227 0,4.713541 l 3.16667,3.166661 9.48774,-9.508408 c 2.13914,-2.139134 5.66488,-1.900976 7.64854,0.08268 l 9.52907,9.425728 3.16667,-3.166657 c 1.30452,-1.304684 1.30631,-3.407379 0,-4.713541 L 124.04366,78.012369 c -1.30513,-1.305293 -3.40749,-1.306081 -4.71354,-1e-5 z"
         style="fill:none;stroke:#ffffff;stroke-width:1.33333;stroke-linecap:round;stroke-linejoin:round;stroke-opacity:1"
         id="path7"
         inkscape:label="tfu"
         sodipodi:nodetypes="ccccccccccc"
         inkscape:transform-center-x="0.0023031277"
         inkscape:transform-center-y="-40.005203" /><path
         d="m 119.33012,78.012359 -14.14258,14.142589 c -1.30725,1.307409 -1.30328,3.410227 0,4.713541 l 3.16667,3.166661 9.48774,-9.508408 c 2.13914,-2.139134 5.66488,-1.900976 7.64854,0.08268 l 9.52907,9.425728 3.16667,-3.166657 c 1.30452,-1.304684 1.30631,-3.407379 0,-4.713541 L 124.04366,78.012369 c -1.30513,-1.305293 -3.40749,-1.306081 -4.71354,-1e-5 z"
         style="fill:#fff955;fill-opacity:0.847059;stroke:#ffffff;stroke-width:1.33333;stroke-linecap:round;stroke-linejoin:round;stroke-opacity:1"
         id="path11"
         inkscape:label="tfl"
         sodipodi:nodetypes="ccccccccccc"
         inkscape:transform-center-x="0.0023031277"
         inkscape:transform-center-y="-40.005203" /><path
         d="m 86.059626,130.73399 12.604819,12.60482 c 1.167262,1.16726 3.042715,1.15911 4.201825,0 l 1.99674,-1.99674 c -0.10243,-0.11715 -0.20357,-0.23543 -0.30338,-0.35482 -5.439417,-7.48775 -5.359792,-17.69089 0.26683,-25.09961 l -1.96029,-1.96029 c -1.15901,-1.15901 -3.034468,-1.16736 -4.201825,0 l -12.604721,12.60482 c -1.157773,1.15778 -1.157804,3.04401 2e-6,4.20182 z"
         style="display:inline;fill:none;stroke:#ffffff;stroke-width:1.33334;stroke-linecap:round;stroke-linejoin:round;stroke-opacity:1"
         id="path1"
         sodipodi:nodetypes="csscccscsc"
         inkscape:transform-center-y="-26.659706"
         inkscape:label="tlu" /><path
         d="m 86.059626,130.73399 12.604819,12.60482 c 1.167262,1.16726 3.042715,1.15911 4.201825,0 l 1.99674,-1.99674 c -0.10243,-0.11715 -0.20357,-0.23543 -0.30338,-0.35482 -5.439417,-7.48775 -5.359792,-17.69089 0.26683,-25.09961 l -1.96029,-1.96029 c -1.15901,-1.15901 -3.034468,-1.16736 -4.201825,0 l -12.604721,12.60482 c -1.157773,1.15778 -1.157804,3.04401 2e-6,4.20182 z"
         style="display:inline;fill:#fff955;fill-opacity:0.847059;stroke:#ffffff;stroke-width:1.33334;stroke-linecap:round;stroke-linejoin:round;stroke-opacity:1"
         id="path12"
         sodipodi:nodetypes="csscccscsc"
         inkscape:transform-center-y="-26.659706"
         inkscape:label="tll" /><path
         d="m 119.4491,92.907096 -12.60482,12.604814 c -1.16726,1.16727 -1.15911,3.04272 0,4.20183 l 1.99674,1.99674 c 0.11715,-0.10243 0.23543,-0.20357 0.35482,-0.30338 7.48775,-5.43942 17.69089,-5.35979 25.09961,0.26683 l 1.96029,-1.96029 c 1.15901,-1.15901 1.16736,-3.03447 0,-4.20183 L 123.65092,92.907094 c -1.15778,-1.157773 -3.04401,-1.157804 -4.20182,2e-6 z"
         style="fill:none;stroke:#ffffff;stroke-width:1.33334;stroke-linecap:round;stroke-linejoin:round;stroke-opacity:1"
         id="path2"
         sodipodi:nodetypes="csscccscsc"
         inkscape:transform-center-y="-26.659706"
         inkscape:label="tuu" /><path
         d="m 119.4491,92.907096 -12.60482,12.604814 c -1.16726,1.16727 -1.15911,3.04272 0,4.20183 l 1.99674,1.99674 c 0.11715,-0.10243 0.23543,-0.20357 0.35482,-0.30338 7.48775,-5.43942 17.69089,-5.35979 25.09961,0.26683 l 1.96029,-1.96029 c 1.15901,-1.15901 1.16736,-3.03447 0,-4.20183 L 123.65092,92.907094 c -1.15778,-1.157773 -3.04401,-1.157804 -4.20182,2e-6 z"
         style="display:inline;fill:#fff955;fill-opacity:0.847059;stroke:#ffffff;stroke-width:1.33334;stroke-linecap:round;stroke-linejoin:round;stroke-opacity:1"
         id="path16"
         sodipodi:nodetypes="csscccscsc"
         inkscape:transform-center-y="-26.659706"
         inkscape:label="tul" /><path
         d="m 157.27599,126.29657 -12.60482,-12.60482 c -1.16726,-1.16726 -3.04271,-1.15911 -4.20182,0 l -1.99674,1.99674 c 0.10243,0.11715 0.20357,0.23543 0.30338,0.35482 5.43942,7.48775 5.35979,17.69089 -0.26683,25.09961 l 1.96029,1.96029 c 1.15901,1.15901 3.03447,1.16736 4.20182,0 L 157.276,130.49839 c 1.15777,-1.15778 1.1578,-3.04401 -1e-5,-4.20182 z"
         style="fill:none;stroke:#ffffff;stroke-width:1.33334;stroke-linecap:round;stroke-linejoin:round;stroke-opacity:1"
         id="path4"
         sodipodi:nodetypes="csscccscsc"
         inkscape:transform-center-y="-26.659706"
         inkscape:label="tru" /><path
         d="m 157.27599,126.29657 -12.60482,-12.60482 c -1.16726,-1.16726 -3.04271,-1.15911 -4.20182,0 l -1.99674,1.99674 c 0.10243,0.11715 0.20357,0.23543 0.30338,0.35482 5.43942,7.48775 5.35979,17.69089 -0.26683,25.09961 l 1.96029,1.96029 c 1.15901,1.15901 3.03447,1.16736 4.20182,0 L 157.276,130.49839 c 1.15777,-1.15778 1.1578,-3.04401 -1e-5,-4.20182 z"
         style="display:inline;fill:#fff955;fill-opacity:0.847059;stroke:#ffffff;stroke-width:1.33334;stroke-linecap:round;stroke-linejoin:round;stroke-opacity:1"
         id="path17"
         sodipodi:nodetypes="csscccscsc"
         inkscape:transform-center-y="-26.659706"
         inkscape:label="trl" /><path
         d="m 123.88652,164.12346 12.60482,-12.60482 c 1.16726,-1.16726 1.15911,-3.04271 0,-4.20182 l -1.99674,-1.99674 c -0.11715,0.10243 -0.23543,0.20357 -0.35482,0.30338 -7.48775,5.43942 -17.69089,5.35979 -25.09961,-0.26683 l -1.96029,1.96029 c -1.15901,1.15901 -1.16736,3.03447 0,4.20182 l 12.60482,12.60473 c 1.15778,1.15777 3.04401,1.1578 4.20182,-1e-5 z"
         style="fill:none;stroke:#ffffff;stroke-width:1.33334;stroke-linecap:round;stroke-linejoin:round;stroke-opacity:1"
         id="path5"
         sodipodi:nodetypes="csscccscsc"
         inkscape:transform-center-y="-26.659706"
         inkscape:label="tdu" /><path
         d="m 123.88652,164.12346 12.60482,-12.60482 c 1.16726,-1.16726 1.15911,-3.04271 0,-4.20182 l -1.99674,-1.99674 c -0.11715,0.10243 -0.23543,0.20357 -0.35482,0.30338 -7.48775,5.43942 -17.69089,5.35979 -25.09961,-0.26683 l -1.96029,1.96029 c -1.15901,1.15901 -1.16736,3.03447 0,4.20182 l 12.60482,12.60473 c 1.15778,1.15777 3.04401,1.1578 4.20182,-1e-5 z"
         style="display:inline;fill:#fff955;fill-opacity:0.847059;stroke:#ffffff;stroke-width:1.33334;stroke-linecap:round;stroke-linejoin:round;stroke-opacity:1"
         id="path19"
         sodipodi:nodetypes="csscccscsc"
         inkscape:transform-center-y="-26.659706"
         inkscape:label="tdl" /></g></g><g
     inkscape:groupmode="layer"
     id="layer2"
     inkscape:label="Guides"
     style="display:none"><path
       id="path20"
       style="display:inline;fill:none;fill-opacity:0.596078;stroke:#00ef0e;stroke-width:0.340179;stroke-linecap:round;stroke-linejoin:round;stroke-dasharray:none;stroke-opacity:0.655629"
       d="m 130.66341,112.96929 a 17.950603,17.950611 30 0 0 -24.52193,6.57064 17.950603,17.950611 30 0 0 6.57062,24.52192 17.950603,17.950611 30 0 0 24.52018,-6.57165 17.950603,17.950611 30 0 0 -6.56887,-24.52091 z m -2.29447,15.54578 a 6.6820593,6.6820593 0 0 1 -6.68206,6.68206 6.6820593,6.6820593 0 0 1 -6.68206,-6.68206 6.6820593,6.6820593 0 0 1 6.68206,-6.68206 6.6820593,6.6820593 0 0 1 6.68206,6.68206 z m -6.68206,56.97649 v -50.29452 m 0,-13.36394 V 71.538581 M 93.198637,177.85816 118.3459,134.30183 m 6.68197,-11.57351 25.14726,-43.556336 m 0,98.686176 -25.14726,-43.55633 M 118.3459,122.72832 101.65514,93.736446 m 69.37483,6.290384 -43.55633,25.14725 m -11.57351,6.68197 -43.556335,25.14726 m 98.686175,0 -43.55633,-25.14725 M 115.90013,125.17409 86.508925,108.25147 M 161.97534,88.226609 126.41175,123.7902 m -9.44973,9.44974 -35.5636,35.56359 m 14.735808,-65.84111 20.827782,20.82778 m 9.44974,9.44974 35.56359,35.56359 M 64.710393,128.51507 h 50.294517 m 13.36394,0 h 50.29452 m -38.73376,10.52707 a 21.064768,21.051306 0.01729812 0 0 -7.71055,-28.75771 21.064768,21.051306 0.01729812 0 0 -28.7761,7.7056 21.064768,21.051306 0.01729812 0 0 7.71173,28.75567 21.064768,21.051306 0.01729812 0 0 28.77492,-7.70356 z M 124.3279,90.670001 159.52778,125.87375 c 1.46312,1.46329 1.46312,3.81934 0,5.28263 l -35.19988,35.20374 c -1.46313,1.46329 -3.81892,1.46329 -5.28205,0 L 83.84597,131.15638 c -1.463128,-1.46329 -1.463129,-3.81935 -2e-6,-5.28263 L 119.04585,90.669999 c 1.46312,-1.463288 3.81892,-1.463287 5.28205,2e-6 z m 32.74645,-4.901712 7.98822,7.988213 M 124.71413,128.5046 a 3.0374546,3.0374546 0 0 0 -3.03769,-3.03769 v 6.07538 a 3.0374546,3.0374546 0 0 0 3.03769,-3.03769 z m -3.02721,-3.02721 a 3.0374546,3.0374546 0 0 0 -3.03769,3.03769 h 6.07538 a 3.0374546,3.0374546 0 0 0 -3.03769,-3.03769 z m 3.03769,3.03769 h -6.07538 a 3.0374546,3.0374546 0 0 0 3.03769,3.03768 3.0374546,3.0374546 0 0 0 3.03769,-3.03768 z"
       inkscape:label="Main Locator"
       inkscape:export-filename=".\combined_locator.png"
       inkscape:export-xdpi="96"
       inkscape:export-ydpi="96" /><path
       id="path117"
       style="display:inline;fill:none;fill-opacity:0.596078;stroke:#00ef0e;stroke-width:0.340179;stroke-linecap:round;stroke-linejoin:round;stroke-dasharray:none;stroke-opacity:0.655629"
       d="m 142.26934,215.91188 a 23.76643,23.751256 0.01731492 0 0 -8.69947,-32.44605 23.76643,23.751256 0.01731492 0 0 -32.46678,8.69388 23.76643,23.751256 0.01731492 0 0 8.7008,32.44375 23.76643,23.751256 0.01731492 0 0 32.46545,-8.69158 z M 64.706997,207.07233 H 178.66677 m -50.29783,-3.03769 a 6.6820593,6.6820593 0 0 1 -6.68206,6.68206 6.6820593,6.6820593 0 0 1 -6.68206,-6.68206 6.6820593,6.6820593 0 0 1 6.68206,-6.68206 6.6820593,6.6820593 0 0 1 6.68206,6.68206 z m -6.68206,-6.68197 v -50.29451 m 6.68197,56.97648 h 50.29452 m -113.952977,0 h 50.294517 m 6.68201,-3.03768 a 3.0374546,3.0374546 0 0 0 -3.03769,3.03769 h 6.07538 a 3.0374546,3.0374546 0 0 0 -3.03769,-3.03769 z m -3.03769,37.72952 v -57.99073 m 6.0649,57.99073 V 180.73575 M 64.706997,200.98648 H 178.66677 m -53.95264,3.03769 a 3.0374546,3.0374546 0 0 0 -3.03769,-3.03769 v 6.07538 a 3.0374546,3.0374546 0 0 0 3.03769,-3.03769 z"
       inkscape:label="Text Locator" /><path
       id="path30"
       style="display:inline;fill:none;fill-opacity:0.654902;stroke:#00f00e;stroke-width:0.333333;stroke-linecap:round;stroke-linejoin:round;stroke-dasharray:none;stroke-opacity:0.654902"
       inkscape:label="Throttle Locator"
       d="M 82.726173,75.906238 V 148.98217 M 84.804947,84.598656 V 109.73679 M 59.980693,104.63853 H 85.118799 M 59.980693,102.73645 H 85.118799 M 59.980693,91.167706 h 25.138106" /></g><g
     inkscape:groupmode="layer"
     id="layer3"
     inkscape:label="Annotations"
     style="display:inline;stroke:#9f0000;stroke-opacity:1"><text
       xml:space="preserve"
       transform="matrix(0.33333333,0,0,0.33333333,-10.697238,-2.5744167)"
       id="text34"
       style="font-size:16px;font-family:'Century Gothic';-inkscape-font-specification:'Century Gothic';text-align:center;white-space:pre;shape-inside:url(#rect34);display:inline;fill:none;fill-opacity:1;stroke:#9f0000;stroke-width:1;stroke-linecap:round;stroke-linejoin:round;stroke-dasharray:none;stroke-opacity:1"><tspan
         x="80.939453"
         y="495.20373"
         id="tspan14"><tspan
           style="fill:#ffffff;stroke:#ffffff"
           id="tspan13">Lateral &amp; Vertical Thrusters</tspan></tspan></text><text
       xml:space="preserve"
       transform="matrix(0.33333333,0,0,0.33333333,142.94514,-67.200327)"
       id="text2"
       style="font-size:16px;font-family:'Century Gothic';-inkscape-font-specification:'Century Gothic';text-align:center;white-space:pre;shape-inside:url(#rect2);display:inline;fill:none;fill-opacity:1;stroke:#9f0000;stroke-width:1;stroke-linecap:round;stroke-linejoin:round;stroke-dasharray:none;stroke-opacity:1"><tspan
         x="154.83008"
         y="495.20373"
         id="tspan16"><tspan
           style="fill:#ffffff;stroke:#ffffff"
           id="tspan15">Mouse&#10;</tspan></tspan><tspan
         x="134.1543"
         y="515.20373"
         id="tspan18"><tspan
           style="fill:#ffffff;stroke:#ffffff"
           id="tspan17">Pitch &amp; Yaw</tspan></tspan></text><text
       xml:space="preserve"
       transform="matrix(0.33333333,0,0,0.33333333,-26.4238,12.092251)"
       id="text6"
       style="font-size:16px;font-family:'Century Gothic';-inkscape-font-specification:'Century Gothic';text-align:center;white-space:pre;shape-inside:url(#rect6);display:inline;fill:none;fill-opacity:1;stroke:#9f0000;stroke-width:1;stroke-linecap:round;stroke-linejoin:round;stroke-dasharray:none;stroke-opacity:1"><tspan
         x="128.05664"
         y="495.20373"
         id="tspan20"><tspan
           style="fill:#ffffff;stroke:#ffffff"
           id="tspan19">Reverse Thrust</tspan></tspan></text><text
       xml:space="preserve"
       transform="matrix(0.33333333,0,0,0.33333333,142.46077,-84.533669)"
       id="text20"
       style="font-size:16px;font-family:'Century Gothic';-inkscape-font-specification:'Century Gothic';text-align:center;white-space:pre;shape-inside:url(#rect20);display:inline;fill:none;fill-opacity:1;stroke:#9f0000;stroke-width:1;stroke-linecap:round;stroke-linejoin:round;stroke-dasharray:none;stroke-opacity:1"><tspan
         x="143.7793"
         y="495.20373"
         id="tspan22"><tspan
           style="fill:#ffffff;stroke:#ffffff"
           id="tspan21">Keyboard&#10;</tspan></tspan><tspan
         x="135.60742"
         y="515.20373"
         id="tspan24"><tspan
           style="fill:#ffffff;stroke:#ffffff"
           id="tspan23">Pitch &amp; Yaw</tspan></tspan></text><text
       xml:space="preserve"
       transform="matrix(0.33333333,0,0,0.33333333,-23.931613,-27.90775)"
       id="text22"
       style="font-size:16px;font-family:'Century Gothic';-inkscape-font-specification:'Century Gothic';text-align:center;white-space:pre;shape-inside:url(#rect22);display:inline;fill:none;fill-opacity:1;stroke:#9f0000;stroke-width:1;stroke-linecap:round;stroke-linejoin:round;stroke-dasharray:none;stroke-opacity:1"><tspan
         x="121.17383"
         y="495.20373"
         id="tspan26"><tspan
           style="fill:#ffffff;stroke:#ffffff"
           id="tspan25">CW &amp; CCW Roll</tspan></tspan></text><text
       xml:space="preserve"
       transform="matrix(0.33333333,0,0,0.33333333,-26.322238,-45.90775)"
       id="text27"
       style="font-size:16px;font-family:'Century Gothic';-inkscape-font-specification:'Century Gothic';text-align:center;white-space:pre;shape-inside:url(#rect27);display:inline;fill:none;fill-opacity:1;stroke:#9f0000;stroke-width:1;stroke-linecap:round;stroke-linejoin:round;stroke-dasharray:none;stroke-opacity:1"><tspan
         x="128.95508"
         y="495.20373"
         id="tspan28"><tspan
           style="fill:#ffffff;stroke:#ffffff"
           id="tspan27">Throttle Down</tspan></tspan></text><text
       xml:space="preserve"
       transform="matrix(0.33333333,0,0,0.33333333,-24.287082,-61.241084)"
       id="text35"
       style="font-size:16px;font-family:'Century Gothic';-inkscape-font-specification:'Century Gothic';text-align:center;white-space:pre;shape-inside:url(#rect35);display:inline;fill:none;fill-opacity:1;stroke:#9f0000;stroke-width:1;stroke-linecap:round;stroke-linejoin:round;stroke-dasharray:none;stroke-opacity:1"><tspan
         x="122.84961"
         y="495.20373"
         id="tspan30"><tspan
           style="fill:#ffffff;stroke:#ffffff"
           id="tspan29">Throttle Cancel</tspan></tspan></text><text
       xml:space="preserve"
       transform="matrix(0.33333333,0,0,0.33333333,-5.9902069,-77.241084)"
       id="text36"
       style="font-size:16px;font-family:'Century Gothic';-inkscape-font-specification:'Century Gothic';text-align:start;white-space:pre;shape-inside:url(#rect36);display:inline;fill:none;fill-opacity:1;stroke:#9f0000;stroke-width:1;stroke-linecap:round;stroke-linejoin:round;stroke-dasharray:none;stroke-opacity:1"
       x="0"
       y="0"><tspan
         x="67.958984"
         y="495.20373"
         id="tspan32"><tspan
           style="fill:#ffffff;stroke:#ffffff"
           id="tspan31">Throttle Binds&#10;</tspan></tspan><tspan
         x="67.958984"
         y="515.20373"
         id="tspan34"><tspan
           style="fill:#ffffff;stroke:#ffffff"
           id="tspan33">25/50/75/100%</tspan></tspan></text><text
       xml:space="preserve"
       transform="matrix(0.33333333,0,0,0.33333333,-17.721978,-92.155777)"
       id="text48"
       style="font-size:16px;font-family:'Century Gothic';-inkscape-font-specification:'Century Gothic';text-align:center;white-space:pre;shape-inside:url(#rect48);display:inline;fill:none;fill-opacity:1;stroke:#9f0000;stroke-width:1;stroke-linecap:round;stroke-linejoin:round;stroke-dasharray:none;stroke-opacity:1"><tspan
         x="103.1543"
         y="495.20373"
         id="tspan36"><tspan
           style="fill:#ffffff;stroke:#ffffff"
           id="tspan35">Throttle Up</tspan></tspan></text><text
       xml:space="preserve"
       transform="matrix(0.33333333,0,0,0.33333333,139.68342,-98.574419)"
       id="text53"
       style="font-size:16px;font-family:'Century Gothic';-inkscape-font-specification:'Century Gothic';text-align:center;white-space:pre;shape-inside:url(#rect53);display:inline;fill:none;fill-opacity:1;stroke:#9f0000;stroke-width:1;stroke-linecap:round;stroke-linejoin:round;stroke-dasharray:none;stroke-opacity:1"><tspan
         x="126.93164"
         y="495.20373"
         id="tspan38"><tspan
           style="fill:#ffffff;stroke:#ffffff"
           id="tspan37">Forward Thrust</tspan></tspan></text><text
       xml:space="preserve"
       transform="matrix(0.33333333,0,0,0.33333333,-15.342884,0)"
       id="text56"
       style="font-size:42.6667px;font-family:'Century Gothic';-inkscape-font-specification:'Century Gothic';text-align:center;white-space:pre;shape-inside:url(#rect56);display:inline;fill:#ffffff;fill-opacity:1;stroke:#ffffff;stroke-width:2;stroke-linecap:round;stroke-linejoin:round;stroke-dasharray:none;stroke-opacity:1"><tspan
         x="145.11179"
         y="130.6364"
         id="tspan39">Contextual Input Overlay</tspan></text><path
       id="path38"
       style="fill:none;fill-opacity:0.847059;stroke:#9f0000;stroke-width:0.666667;stroke-linecap:butt;stroke-linejoin:round;stroke-dasharray:none;stroke-opacity:1"
       d="m 83.176576,97.909637 h 1.514506 M 76.077893,85.159262 65.839933,74.921303 H 13.621739 m 107.714831,9.448969 15.60815,-15.608135 h 86.11132 M 64.900023,92.374229 h 16.15907 c 1.289252,0 2.32717,1.037918 2.32717,2.327171 v 6.18568 c 0,1.28925 -1.037918,2.32717 -2.32717,2.32717 h -16.15907 c -1.289252,0 -2.32717,-1.03792 -2.32717,-2.32717 V 94.7014 c 0,-1.289253 1.037918,-2.327171 2.32717,-2.327171 z M 13.621607,121.39985 H 56.86261 L 69.662401,111.3944 m -56.098289,27.59963 h 54.235414 l 10.16914,-10.16914 M 175.1903,89.124656 h 47.86575 m -48.03109,0.248025 c 0,7.807976 -6.32961,14.137589 -14.13759,14.137589 -7.80797,0 -14.13758,-6.329617 -14.13758,-14.137589 0,-7.807971 6.32961,-14.137582 14.13758,-14.137585 7.80797,-3e-6 14.13759,6.32961 14.13759,14.137585 z m -161.726656,89.041979 95.217796,0 13.84103,-4.20995 m 13.02888,-59.32565 8.50093,-8.58862 h 79.16884 m -82.17758,22.24203 c 0,10.59012 -8.58499,19.17511 -19.17511,19.17511 -10.59012,0 -19.17512,-8.58499 -19.17512,-19.17511 0,-10.59012 8.585,-19.17511 19.17512,-19.17511 10.59012,0 19.17511,8.58499 19.17511,19.17511 z M 92.115354,92.638305 c -1.936017,0.07759 -3.885214,-0.05345 -5.817655,0.06779 -1.282642,0.247501 -2.009314,1.698576 -1.783384,2.950297 0.05481,1.975232 -0.130429,3.972934 0.115898,5.932788 0.386398,1.2669 1.815559,1.75293 2.995468,1.55731 1.869262,-0.0541 3.760814,0.13214 5.615006,-0.11824 1.234418,-0.39503 1.708395,-1.8516 1.521761,-3.056419 -0.05429,-1.917681 0.128767,-3.859515 -0.11907,-5.760666 C 94.312191,93.13867 93.1646,92.555088 92.115354,92.6383 Z m 4.344822,62.282585 25.371954,0.58461 M 62.60016,97.584339 H 13.622007 M 122.41674,101.83856 96.109412,154.92089 149.89327,129.08126 M 13.338187,164.49472 h 72.888952 l 9.842297,-9.72537 -1.246158,-25.80501"
       sodipodi:nodetypes="ccccccccsssssssssccccccccsssssccccccsssssscccccccssccccccccccc" /></g></svg>
